<svg aria-hidden="true" style="position: absolute; width: 0; height: 0; overflow: hidden;" version="1.1" xmlns="http://www.w3.org/2000/svg" xmlns:xlink="http://www.w3.org/1999/xlink">
<defs>
<symbol id="icon-Icon_Phone" viewBox="0 0 25 32">
<path d="M8.112 0.863c-0.505-0.037-1.022 0.015-1.529 0.165l-1.814 0.537c-1.933 0.572-3.444 2.106-3.955 4.042-1.135 4.306 0.163 9.403 3.542 15.14 3.374 5.729 7.218 9.37 11.56 10.559 1.955 0.535 4.064 0.024 5.545-1.352l1.38-1.28c1.544-1.434 1.775-3.822 0.527-5.52l-1.994-2.708c-1.069-1.452-2.953-2.070-4.686-1.549l-3.12 0.934c-0.131 0.038-0.444-0.14-0.717-0.376l-0.002-0.001c-0.486-0.422-1.159-1.276-1.879-2.497v-0.002c-0.772-1.311-1.101-2.169-1.234-2.675s-0.1-0.568-0.081-0.74c0.010-0.085 0.051-0.165 0.12-0.228l0.002-0.001 2.326-2.127c1.333-1.218 1.735-3.166 0.984-4.804l-1.403-3.060v-0.002c-0.66-1.44-2.060-2.345-3.573-2.455zM7.946 3.157c0.704 0.053 1.352 0.475 1.648 1.121l1.404 3.060c0.34 0.741 0.169 1.588-0.445 2.15l-2.326 2.126c-0.477 0.435-0.782 1.028-0.855 1.668v0.002c-0.019 0.168-0.064 0.794 0.141 1.578s0.627 1.82 1.476 3.262h0.002c0.792 1.344 1.541 2.364 2.352 3.069h0.002c0.263 0.228 1.367 1.286 2.868 0.847l0.005-0.002 3.133-0.939c0.814-0.244 1.684 0.047 2.172 0.711l1.994 2.708c0.565 0.769 0.466 1.815-0.24 2.47l-1.38 1.282c-0.883 0.82-2.194 1.14-3.374 0.817-3.51-0.961-6.983-4.071-10.184-9.506-3.205-5.443-4.208-9.945-3.301-13.386 0.3-1.136 1.219-2.079 2.385-2.424l1.813-0.537c0.236-0.070 0.476-0.094 0.711-0.076z"></path>
</symbol>
<symbol id="icon-Icon_order" viewBox="0 0 55 32">
<path fill="#fff" style="fill: var(--color1, #fff)" d="M6.729 0l-6.729 28h9.854l0.3 2.312 0.24 1.688h44.462l-0.541-2.438-5.768-28-0.301-1.563h-41.518zM10.455 4h34.669l4.987 24h-36.351l-3.305-24zM7.691 12.438l1.622 11.563h-4.386l2.764-11.563zM19.768 14v4h21.15v-4h-21.15z"></path>
</symbol>
<symbol id="icon-Icon_Mouse" viewBox="0 0 20 32">
<path fill="none" stroke="#fff" stroke-width="1.28" stroke-miterlimit="4" stroke-linecap="butt" stroke-linejoin="miter" style="stroke: var(--color1, #fff)" d="M10.24 0.64c5.302 0 9.6 4.298 9.6 9.6v11.52c0 5.302-4.298 9.6-9.6 9.6s-9.6-4.298-9.6-9.6v-11.52c0-5.302 4.298-9.6 9.6-9.6z"></path>
<path fill="#fff" style="fill: var(--color1, #fff)" d="M10.24 20.48c0.353 0 0.64 0.287 0.64 0.64v4.48c0 0.353-0.287 0.64-0.64 0.64s-0.64-0.287-0.64-0.64v-4.48c0-0.353 0.287-0.64 0.64-0.64z"></path>
</symbol>
<symbol id="icon-telegram" viewBox="0 0 32 32">
<path fill="#ef826b" style="fill: var(--color1, #ef826b)" d="M16 32c8.836 0 16-7.164 16-16s-7.164-16-16-16c-8.837 0-16 7.163-16 16s7.163 16 16 16z"></path>
<path fill="#fff" style="fill: var(--color2, #fff)" d="M7.321 15.653l15.427-5.948c0.716-0.259 1.341 0.175 1.109 1.257l0.001-0.001-2.627 12.375c-0.195 0.877-0.716 1.091-1.445 0.677l-4-2.948-1.929 1.859c-0.213 0.213-0.393 0.393-0.807 0.393l0.284-4.071 7.413-6.697c0.323-0.284-0.072-0.444-0.497-0.161l-9.161 5.768-3.949-1.232c-0.857-0.272-0.876-0.857 0.181-1.271z"></path>
</symbol>
<symbol id="icon--instagram" viewBox="0 0 31 32">
<path fill="#ef826b" style="fill: var(--color1, #ef826b)" d="M3.273 3.434c-2.286 2.375-1.818 4.897-1.818 12.56 0 6.364-1.11 12.743 4.701 14.245 1.815 0.467 17.892 0.467 19.704-0.002 2.419-0.624 4.388-2.587 4.657-6.009 0.038-0.478 0.038-15.982-0.001-16.469-0.286-3.645-2.53-5.745-5.486-6.171-0.678-0.098-0.813-0.127-4.29-0.133-12.331 0.006-15.034-0.543-17.467 1.979v0z"></path>
<path fill="#fff" style="fill: var(--color2, #fff)" d="M15.998 5.259c-4.401 0-8.581-0.392-10.177 3.705-0.659 1.692-0.564 3.89-0.564 7.036 0 2.761-0.088 5.356 0.564 7.035 1.593 4.099 5.806 3.707 10.175 3.707 4.215 0 8.56 0.439 10.176-3.707 0.661-1.709 0.564-3.874 0.564-7.035 0-4.196 0.232-6.905-1.804-8.939-2.061-2.061-4.847-1.802-8.938-1.802h0.005zM15.035 7.195c9.181-0.015 10.349-1.035 9.704 13.143-0.229 5.015-4.047 4.464-8.741 4.464-8.558 0-8.804-0.245-8.804-8.806 0-8.661 0.679-8.796 7.84-8.804v0.002zM21.731 8.978c-0.712 0-1.288 0.577-1.288 1.289s0.577 1.288 1.288 1.288c0.712 0 1.288-0.577 1.288-1.288s-0.577-1.288-1.288-1.288zM15.998 10.484c-3.046 0-5.515 2.47-5.515 5.516s2.469 5.515 5.515 5.515c3.046 0 5.514-2.469 5.514-5.515s-2.468-5.516-5.514-5.516zM15.998 12.42c4.733 0 4.74 7.161 0 7.161-4.732 0-4.739-7.161 0-7.161z"></path>
</symbol>
<symbol id="icon--phone" viewBox="0 0 32 32">
<path fill="#ef826b" style="fill: var(--color1, #ef826b)" d="M27.36 4.599c-3.040-2.939-7.040-4.599-11.3-4.599-12.227 0-19.904 13.247-13.799 23.784l-2.261 8.216 8.447-2.203c3.68 1.988 6.695 1.812 7.621 1.929 14.177 0 21.235-17.152 11.272-27.076l0.020-0.052z"></path>
<path fill="#ef826b" style="fill: var(--color1, #ef826b)" d="M16.089 29.001l-0.008-0.001h-0.021c-4.243 0-6.953-2.009-7.22-2.125l-5 1.3 1.34-4.86-0.319-0.5c-1.32-2.101-2.021-4.521-2.021-7.013 0-11.724 14.327-17.587 22.617-9.3 8.271 8.2 2.464 22.5-9.368 22.5z"></path>
<path fill="#fafafa" style="fill: var(--color3, #fafafa)" d="M23.342 19.076l-0.012 0.1c-0.401-0.2-2.356-1.156-2.72-1.288-0.817-0.303-0.587-0.048-2.156 1.749-0.233 0.26-0.465 0.28-0.861 0.1-0.4-0.2-1.684-0.62-3.204-1.98-1.184-1.060-1.979-2.36-2.213-2.76-0.391-0.675 0.427-0.771 1.171-2.179 0.133-0.28 0.065-0.5-0.033-0.699-0.1-0.2-0.896-2.16-1.229-2.941-0.32-0.779-0.649-0.68-0.896-0.68-0.768-0.067-1.329-0.056-1.824 0.459-2.152 2.365-1.609 4.805 0.232 7.4 3.619 4.736 5.547 5.608 9.072 6.819 0.952 0.303 1.82 0.26 2.507 0.161 0.765-0.121 2.356-0.961 2.688-1.901 0.34-0.94 0.34-1.72 0.24-1.9-0.099-0.18-0.36-0.28-0.76-0.46z"></path>
</symbol>
<symbol id="icon--viber" viewBox="0 0 30 32">
<path fill="#fff" style="fill: var(--color2, #fff)" d="M4.571 3.048h19.81v19.81h-19.81v-19.81z"></path>
<path fill="#ef826b" style="fill: var(--color1, #ef826b)" d="M28.483 7.093c-0.545-1.945-1.624-3.485-3.207-4.575-1.997-1.376-4.295-1.864-6.279-2.16-2.745-0.409-5.232-0.467-7.6-0.177-2.221 0.272-3.893 0.707-5.42 1.408-2.991 1.373-4.785 3.597-5.333 6.608-0.267 1.461-0.445 2.783-0.549 4.043-0.24 2.913-0.023 5.492 0.665 7.882 0.669 2.329 1.84 3.995 3.579 5.088 0.444 0.279 1.009 0.48 1.559 0.675 0.275 0.097 0.539 0.193 0.769 0.295v4.707c0 0.616 0.499 1.115 1.115 1.115 0.291 0 0.569-0.113 0.777-0.316l4.343-4.224c0.189-0.216 0.189-0.216 0.384-0.22 1.484-0.029 3-0.087 4.507-0.168 1.825-0.1 3.94-0.276 5.932-1.107 1.823-0.761 3.153-1.969 3.952-3.59 0.833-1.691 1.329-3.523 1.515-5.599 0.326-3.651 0.093-6.819-0.708-9.684zM20.921 20.986c-0.436 0.713-1.089 1.207-1.857 1.527-0.561 0.235-1.135 0.185-1.688-0.049-4.645-1.965-8.287-5.064-10.695-9.516-0.496-0.917-0.841-1.916-1.237-2.885-0.081-0.2-0.075-0.433-0.111-0.651 0.035-1.567 1.236-2.448 2.449-2.715 0.464-0.103 0.875 0.061 1.219 0.391 0.952 0.909 1.705 1.963 2.272 3.144 0.248 0.519 0.136 0.977-0.287 1.363-0.087 0.080-0.179 0.155-0.273 0.225-0.964 0.725-1.105 1.273-0.592 2.365 0.875 1.857 2.327 3.104 4.205 3.878 0.495 0.204 0.961 0.103 1.34-0.299 0.051-0.053 0.108-0.105 0.145-0.167 0.741-1.236 1.815-1.113 2.807-0.408 0.652 0.463 1.284 0.951 1.929 1.423 0.979 0.721 0.971 1.399 0.373 2.375zM15.348 8.19c-0.249 0-0.5 0.020-0.745 0.061-0.416 0.071-0.808-0.211-0.877-0.627-0.069-0.415 0.211-0.808 0.627-0.877 0.327-0.053 0.663-0.081 0.996-0.081 3.3 0 5.986 2.685 5.986 5.985 0 0.335-0.028 0.671-0.083 0.997-0.063 0.372-0.385 0.636-0.751 0.636-0.041 0-0.084-0.003-0.127-0.011-0.415-0.071-0.695-0.463-0.625-0.877 0.041-0.243 0.061-0.493 0.061-0.744 0-2.461-2.001-4.463-4.461-4.463zM18.666 13.142c0 0.42-0.341 0.761-0.761 0.761s-0.761-0.341-0.761-0.761c0-1.26-1.025-2.285-2.285-2.285-0.42 0-0.761-0.341-0.761-0.761s0.341-0.761 0.761-0.761c2.099-0.001 3.808 1.708 3.808 3.808zM23.795 14.072c-0.080 0.355-0.393 0.593-0.743 0.593-0.056 0-0.113-0.007-0.169-0.019-0.411-0.093-0.668-0.501-0.575-0.911 0.111-0.487 0.167-0.989 0.167-1.493 0-3.704-3.013-6.719-6.719-6.719-0.505 0-1.007 0.056-1.493 0.167-0.408 0.095-0.819-0.164-0.911-0.575-0.093-0.411 0.164-0.819 0.575-0.911 0.597-0.137 1.213-0.205 1.832-0.205 4.544 0 8.242 3.697 8.242 8.241 0 0.619-0.069 1.235-0.205 1.831z"></path>
</symbol>
</defs>
</svg>
