<svg width="20" height="21" viewBox="0 0 20 21" fill="none" xmlns="http://www.w3.org/2000/svg">
<rect x="3" y="2" width="13" height="13" fill="white"/>
<path d="M18.6918 4.65469C18.3339 3.37804 17.626 2.3674 16.5874 1.65251C15.2766 0.749491 13.769 0.429235 12.4669 0.234981C10.6653 -0.0336493 9.03338 -0.0712751 7.47935 0.118604C6.02157 0.297107 4.9243 0.582362 3.92241 1.04262C1.95974 1.94389 0.781972 3.40342 0.42234 5.3792C0.247337 6.33822 0.130085 7.20536 0.0618338 8.03225C-0.0956692 9.94417 0.0469586 11.6364 0.498467 13.2045C0.937725 14.7331 1.70599 15.826 2.84701 16.5435C3.13839 16.7264 3.5094 16.8585 3.86991 16.9863C4.05016 17.0502 4.22341 17.1132 4.37479 17.1797V20.2685C4.37479 20.6727 4.70205 21 5.1063 21C5.29706 21 5.47994 20.9256 5.61644 20.7926L8.46637 18.0206C8.59062 17.8788 8.59062 17.8788 8.71837 17.8762C9.69227 17.8569 10.6872 17.8193 11.6759 17.7659C12.8738 17.7003 14.2616 17.5848 15.5689 17.0397C16.765 16.54 17.6383 15.7473 18.1624 14.6841C18.7093 13.5746 19.0348 12.3723 19.1564 11.0099C19.37 8.61414 19.2177 6.5351 18.6918 4.65469ZM13.7296 13.7724C13.4435 14.2405 13.0147 14.5643 12.5107 14.7743C12.1423 14.9283 11.7661 14.8959 11.4029 14.7419C8.35437 13.4521 5.9647 11.4186 4.38442 8.49689C4.05891 7.89488 3.83228 7.23949 3.5724 6.60335C3.51902 6.4721 3.5234 6.31897 3.49977 6.17634C3.52252 5.1482 4.31091 4.56981 5.10718 4.39481C5.41169 4.32743 5.68119 4.43506 5.90695 4.65119C6.53171 5.24795 7.02609 5.93921 7.39797 6.71448C7.56073 7.05486 7.48723 7.35587 7.20984 7.60875C7.15297 7.66125 7.09259 7.71025 7.03047 7.75662C6.39783 8.23263 6.30508 8.59226 6.64196 9.3089C7.21597 10.5278 8.16886 11.3459 9.40176 11.8535C9.72639 11.9873 10.0326 11.9208 10.2812 11.6574C10.3144 11.6224 10.352 11.5883 10.3765 11.5481C10.863 10.7369 11.5674 10.8174 12.2184 11.2803C12.6463 11.5839 13.0611 11.9042 13.4846 12.214C14.1269 12.6873 14.1216 13.1319 13.7296 13.7724ZM10.072 5.37483C9.9084 5.37483 9.74389 5.38795 9.58289 5.41508C9.30988 5.46146 9.05263 5.27683 9.00713 5.00382C8.96163 4.73169 9.14538 4.47356 9.41839 4.42806C9.63277 4.39306 9.85327 4.37468 10.072 4.37468C12.2377 4.37468 14 6.13697 14 8.30263C14 8.52226 13.9816 8.74277 13.9457 8.95715C13.9046 9.20128 13.6928 9.37453 13.4531 9.37453C13.426 9.37453 13.398 9.37278 13.37 9.36753C13.0978 9.32115 12.9141 9.0639 12.9596 8.79177C12.9867 8.63252 12.9998 8.46801 12.9998 8.30351C12.9998 6.68823 11.6864 5.37483 10.072 5.37483ZM12.2499 8.62464C12.2499 8.90027 12.0259 9.12427 11.7503 9.12427C11.4747 9.12427 11.2507 8.90027 11.2507 8.62464C11.2507 7.79775 10.5778 7.12486 9.75089 7.12486C9.47526 7.12486 9.25126 6.90086 9.25126 6.62523C9.25126 6.3496 9.47526 6.12559 9.75089 6.12559C11.1282 6.12472 12.2499 7.24649 12.2499 8.62464ZM15.6153 9.23453C15.5628 9.46728 15.3571 9.62391 15.1279 9.62391C15.0911 9.62391 15.0535 9.61953 15.0167 9.61166C14.7472 9.55041 14.5784 9.28265 14.6396 9.01402C14.7122 8.69464 14.749 8.36476 14.749 8.034C14.749 5.60321 12.7715 3.6248 10.3398 3.6248C10.0081 3.6248 9.67914 3.66155 9.35976 3.73417C9.09201 3.7963 8.8225 3.62655 8.76212 3.35704C8.70087 3.08753 8.86975 2.81978 9.13926 2.7594C9.53126 2.66928 9.93552 2.62465 10.3415 2.62465C13.3236 2.62465 15.75 5.05107 15.75 8.03313C15.75 8.43914 15.7045 8.84339 15.6153 9.23453Z" fill="#EF826B"/>
</svg>
