<svg width="20" height="20" viewBox="0 0 20 20" fill="none" xmlns="http://www.w3.org/2000/svg">
<path d="M17.1 2.87417C15.2 1.0375 12.7 0 10.0375 0C2.39583 0 -2.4025 8.27917 1.41333 14.865L0 20L5.27917 18.6233C7.57917 19.8658 9.46333 19.7558 10.0425 19.8292C18.9033 19.8292 23.3142 9.10917 17.0875 2.90667L17.1 2.87417Z" fill="#EF826B"/>
<path d="M10.0557 18.1258L10.0507 18.1249H10.0374C7.38574 18.1249 5.69157 16.8691 5.5249 16.7966L2.3999 17.6091L3.2374 14.5716L3.03824 14.2591C2.21324 12.9458 1.7749 11.4333 1.7749 9.87576C1.7749 2.54827 10.7291 -1.1159 15.9107 4.06327C21.0799 9.18826 17.4507 18.1258 10.0557 18.1258Z" fill="#EF826B"/>
<path d="M14.589 11.9226L14.5815 11.9851C14.3307 11.8601 13.109 11.2626 12.8815 11.1801C12.3707 10.9909 12.5149 11.1501 11.534 12.2734C11.3882 12.4359 11.2432 12.4484 10.9957 12.3359C10.7457 12.2109 9.9432 11.9484 8.9932 11.0984C8.2532 10.4359 7.75654 9.62339 7.60987 9.37339C7.3657 8.95173 7.87654 8.89173 8.34154 8.01173C8.42487 7.83673 8.38237 7.69923 8.3207 7.57506C8.2582 7.45006 7.7607 6.22506 7.55237 5.73673C7.35237 5.25006 7.14654 5.31173 6.99237 5.31173C6.51237 5.27006 6.16154 5.27673 5.85237 5.59839C4.50737 7.07673 4.84654 8.60173 5.99737 10.2234C8.25904 13.1834 9.46404 13.7284 11.6674 14.4851C12.2624 14.6742 12.8049 14.6476 13.234 14.5859C13.7124 14.5101 14.7065 13.9851 14.914 13.3976C15.1265 12.8101 15.1265 12.3226 15.064 12.2101C15.0024 12.0976 14.839 12.0351 14.589 11.9226Z" fill="#FAFAFA"/>
</svg>
