<svg width="21" height="22" viewBox="0 0 21 22" fill="none" xmlns="http://www.w3.org/2000/svg">
<path d="M2.25 2.36059C0.678337 3.99309 1 5.72726 1 10.9956C1 15.3706 0.23667 19.7564 4.23167 20.7889C5.47917 21.1098 16.5325 21.1098 17.7783 20.7873C19.4417 20.3581 20.795 19.0089 20.98 16.6564C21.0058 16.3281 21.0058 5.66892 20.9792 5.33392C20.7825 2.82809 19.24 1.38392 17.2075 1.09142C16.7417 1.02392 16.6483 1.00392 14.2583 0.999754C5.78084 1.00392 3.9225 0.62642 2.25 2.36059V2.36059Z" fill="#EF826B"/>
<path d="M10.9983 3.61553C7.97251 3.61553 5.09917 3.34636 4.00167 6.16303C3.54834 7.32636 3.61417 8.83719 3.61417 11.0005C3.61417 12.8989 3.55334 14.683 4.00167 15.8372C5.09667 18.6555 7.99334 18.3855 10.9967 18.3855C13.8942 18.3855 16.8817 18.6872 17.9925 15.8372C18.4467 14.6622 18.38 13.1739 18.38 11.0005C18.38 8.11553 18.5392 6.25303 17.14 4.85469C15.7233 3.43803 13.8075 3.61553 10.995 3.61553H10.9983ZM10.3367 4.94636C16.6483 4.93636 17.4517 4.23469 17.0083 13.9822C16.8508 17.4297 14.2258 17.0514 10.9992 17.0514C5.11584 17.0514 4.94667 16.883 4.94667 10.9972C4.94667 5.04303 5.41334 4.94969 10.3367 4.94469V4.94636ZM14.94 6.17219C14.4508 6.17219 14.0542 6.56886 14.0542 7.05803C14.0542 7.54719 14.4508 7.94386 14.94 7.94386C15.4292 7.94386 15.8258 7.54719 15.8258 7.05803C15.8258 6.56886 15.4292 6.17219 14.94 6.17219ZM10.9983 7.20802C8.90417 7.20802 7.20667 8.90636 7.20667 11.0005C7.20667 13.0947 8.90417 14.7922 10.9983 14.7922C13.0925 14.7922 14.7892 13.0947 14.7892 11.0005C14.7892 8.90636 13.0925 7.20802 10.9983 7.20802ZM10.9983 8.53886C14.2525 8.53886 14.2567 13.4622 10.9983 13.4622C7.74501 13.4622 7.74001 8.53886 10.9983 8.53886Z" fill="white"/>
</svg>
